<?xml version="1.0" encoding="utf-8"?>
<!-- Generator: Adobe Illustrator 24.3.0, SVG Export Plug-In . SVG Version: 6.00 Build 0)  -->
<svg version="1.1" id="Layer_1" xmlns="http://www.w3.org/2000/svg" xmlns:xlink="http://www.w3.org/1999/xlink" x="0px" y="0px"
	 viewBox="0 0 73 73" style="enable-background:new 0 0 149 73;" xml:space="preserve">
<style type="text/css">
	.st0{fill:#38D430;}
	.st1{fill:#2C4A99;}
</style>
<g>
	<path class="st0" d="M57.4,28.7C57.4,44.3,29.2,73,29.2,73S1,44.3,1,28.7S13.6,0.5,29.2,0.5S57.4,13.2,57.4,28.7z"/>
	<path class="st1" d="M16.7,34.4c-2.7-5-5.5-10.1-4.9-15.6c0.5-5.1,4.4-10,9.5-12.1C26.1,4.8,32,5.1,37.1,7.4
		c0.8,0.4,1.6,0.8,2.4,1.2c2.1,1.1,4.2,2.2,6.6,2.5c1.4,0.2,3-0.2,4.3-1C50.2,10,50.1,9.9,50,9.7c-1.1,0.6-2.5,1-3.8,0.8
		c-2.3-0.2-4.4-1.4-6.4-2.4c-0.8-0.4-1.6-0.9-2.4-1.2C32.1,4.4,26,4.2,21.1,6.2c-5.3,2.2-9.3,7.3-9.9,12.6c-0.6,5.7,2.2,10.9,5,16
		c2.7,5.1,5.6,10.3,4.8,15.9c-0.2,1.8-2.4,5.8-4,8.5c0.1,0.2,0.3,0.3,0.4,0.5c1.6-2.6,3.9-6.9,4.2-8.9
		C22.4,44.9,19.5,39.6,16.7,34.4z"/>
	<path class="st1" d="M12.2,34.8C9.5,32.2,5.5,31,1.3,31.6c0,0.2,0.1,0.4,0.1,0.6c4-0.5,7.8,0.6,10.3,3c2.6,2.6,3.9,6.8,3.4,11.3
		c-0.3,2.6-1.1,5.1-2,7.5c0.1,0.2,0.3,0.4,0.4,0.6c1-2.6,1.9-5.2,2.2-8C16.3,41.9,15,37.5,12.2,34.8z"/>
	<path class="st1" d="M42.3,17.2c-1.2-1.3-2.4-2.5-3.6-3.7c-0.3-0.3-0.6-0.5-0.8-0.8C34.3,9.1,28.9,8,24.7,9.7
		c-4.6,1.9-7.1,7.3-5.6,11.7c1.5,4.4,6.1,6.6,8.7,7.5c1.6,0.6,3.3,1,4.9,1.4c2.1,0.5,4.2,1.1,6.2,2c2.4,1,4.6,2.5,6.7,3.9
		c2.7,1.8,5.3,3.8,7.4,6c0.1-0.2,0.2-0.4,0.3-0.6c-2-2.2-4.6-4.1-7.3-5.9c-2.1-1.4-4.4-2.9-6.8-4c-2-0.9-4.2-1.4-6.3-2
		c-1.6-0.4-3.2-0.8-4.8-1.4c-2.5-0.9-6.9-3-8.3-7.1c-1.4-4.1,1.1-9.2,5.3-11c4-1.7,9.1-0.6,12.4,2.8c0.3,0.3,0.5,0.5,0.8,0.8
		c1.2,1.2,2.4,2.4,3.6,3.7c4.3,4.7,9.7,8.5,15.6,10.9c0-0.2,0-0.4,0-0.7C51.6,25.4,46.4,21.8,42.3,17.2z"/>
	<path class="st1" d="M23,59.6l-0.1-0.1L23,59.6c1.9-2.4,2.8-5.4,3.6-8.2c0.8-2.8,1.6-5.8,3.5-8c1.7-2.1,4.2-3.5,6.8-3.9
		c2.6-0.4,5.4,0.3,7.6,1.8c1.3,0.9,2.4,2.1,3.5,3.3l0.6,0.7c0.5,0.6,1.1,1.2,1.6,1.8c0.1-0.2,0.2-0.4,0.3-0.5
		c-0.5-0.5-1-1.1-1.5-1.6l-0.6-0.7c-1.1-1.3-2.2-2.5-3.6-3.4c-2.3-1.6-5.3-2.3-8-1.9c-2.8,0.4-5.4,1.9-7.2,4.1
		c-1.9,2.4-2.8,5.4-3.6,8.3c-0.8,2.8-1.6,5.7-3.4,8l0,0c-0.1,0-0.1,0.1-0.2,0.2c-0.1,0.1-0.3,0.3-0.4,0.5c-0.4,0.4-0.8,1-1.3,1.5
		c-0.3,0.4-0.6,0.7-0.9,1.1c0.1,0.2,0.3,0.3,0.4,0.5c0.3-0.3,0.6-0.7,1-1.1C22,60.8,23,59.7,23,59.6z"/>
	<path class="st1" d="M44.2,51.4c-0.3-0.3-0.5-0.7-0.8-1c-0.5-0.7-1.1-1.5-1.8-2.1c-2.6-2.2-7.1-1.8-9.7,1c-2.2,2.4-3,6.2-2,9.9
		c0.8,3,2.6,5.6,5,7.5c0.1-0.2,0.3-0.3,0.4-0.5c-2.3-1.8-4-4.4-4.8-7.2c-0.9-3.5-0.2-7.1,1.9-9.4c2.3-2.5,6.5-3,8.8-0.9
		c0.6,0.6,1.1,1.2,1.7,2c0.2,0.3,0.5,0.7,0.8,1c0.5,0.7,1.2,1.3,1.9,1.8c0.1-0.2,0.2-0.3,0.4-0.5C45.3,52.6,44.7,52,44.2,51.4z"/>

</g>
</svg>
