<?xml version="1.0" encoding="utf-8"?>
<!-- Generator: Adobe Illustrator 18.0.0, SVG Export Plug-In . SVG Version: 6.00 Build 0)  -->
<!DOCTYPE svg PUBLIC "-//W3C//DTD SVG 1.1//EN" "http://www.w3.org/Graphics/SVG/1.1/DTD/svg11.dtd">
<svg version="1.1" id="Layer_1" xmlns="http://www.w3.org/2000/svg" xmlns:xlink="http://www.w3.org/1999/xlink" x="0px" y="0px"
	 viewBox="0 0 282.9 423.9" width="258.335901638" height="387.092925784" enable-background="new 0 0 282.9 423.9" xml:space="preserve">
<path fill="#420147" d="M195.4,99.9c2.7-4.8,6.4-9.6,10.5-13.6c6.4-6.2,14.3-9.7,19.6-9.7c5.4,0,7.5,1.9,8.5,1.9
	c0.9,0,1.7-1.3,3-1.7c0.5-0.1,0.4-0.3,0.9-0.3c0.6,0,1.8,1.1,1.8,1.7c0,0.5-0.2,0.5-0.3,0.9c-0.3,1.4-1.5,2.1-1.5,3
	c0,0.9,2.7,2.5,2.7,9.2c0,6.4-4.1,16.1-9.9,23c-3.5,4.2-6.5,6.1-7.7,7.2c-0.7,0.7-1,2-1.8,2.7c-0.9,0.8-1.3,0.1-1.6,0.7
	c-0.3,0.6-1.2,0.8-1.8,0.6c-0.6-0.2-0.1,0.3-0.7,0.6c-0.6,0.3-0.7,0.2-1.4,0.4c-0.7,0.2-0.3,0.6-2.2,1c0.6,0.3,3.6-0.1,4.3-0.1
	c0.7,0,2.7-0.6,3.4-0.6c0.7,0,0.7-0.2,1.4-0.2c0.7,0,0.6,0.1,1,0.1c0.4,0,1.7-0.6,2.5,0c0.3-0.3,1.7-0.2,2-0.2c0.4,0,0.5,0.4,1,0.5
	c0.5,0.1,1.4,0,2.1,0.2c0.2,0.1,0.4,0.1,0.8,0.5c1.4-0.1,2.6,0.7,2.8,1.1c0.6,0.7,1,0.2,1.3,0.5c0.3,0.3,1.3,0.6,1.5,1.2
	c0.1,0.3-0.1,0.5,0.1,0.7c0.2,0.2,0.9,0.2,1.1,0.3c0.2,0.1,0.4,0.4,0.6,0.6c0.2,0.3,0.9,0.5,0.7,1.3c1.1,0,2,1.3,2,2v0.7
	c0,0,0.3,0.3,0.7,0.4c0.4,0.1,1.1,1.7,0.9,2.4c-0.2,0.6,0.1,0.5,0.1,0.9c0,6.1-11.4,11-26.8,11c-5.9,0-8.2-2.4-8.5-3.2
	c-0.2-0.5-0.2-0.7-0.2-1.1c-0.2-0.3-0.8-1.2-0.3-2.1c0,0-0.3-0.5-0.3-1.2c0.1-1.4,0.6-1.3,0.6-1.8c0-0.3-0.1-0.5-0.1-0.8
	c0-0.7,0.3-0.8,0.5-1.8c0.2-0.8,0.3-0.2,0.7-0.9c0.4-0.7,0.4-0.2,0.4-1.1c0-0.9,0.2-1,1.1-1.3c0,0,0.2-1.3,1.2-1.4
	c0.4,0,0.2-0.5,0.4-1c0.2-0.5,0.8-0.1,1-0.6c0.1-0.3,1.1-1.2,2.2-1.4c-3.8-0.1-6.1,0.9-7.7,0.8c-1.2-0.1-1.6-0.3-6.6,0.8
	c-6.2,1.4-17.4,7.1-23,10.6c-7,4.3-25.1,16.9-31,27.9c-1,1.7-3,12-5.5,21.3c-2.8,10.7-6.2,21-6.4,22.8c1.6-2.2,3.2-3.8,5-3.8
	c3.1,0,2.4,3.8,2.7,4.1c0.5,0.3,0.5-0.8,0.5-1.8c0-1,0.2-3.2,1.7-5.6c1.7-2.6,4.6-5.4,8.2-8.2c3.5-2.8,5.9-9.9,7.7-15.2
	c1.9-5.3,5.3-11.1,10-11.1c3.3,0,5.3,2.9,6,4.1c0.8,1.5,1.8,4.6,2.9,4.4c2.7-0.5,9.3-15.1,14.9-20.9c2.6-2.7,5.5-6.1,10.5-6.1
	c8.8,0,7.5,12.3,11,12.3c2.3,0,3.9-3.5,5-5c2.3-3.2,9.4-9,13.6-9c4.1,0,4.8,3.3,4.8,6.3c0,2.4-0.6,4.5,1.8,4.5
	c1.5,0,5.8-7.6,11.2-7.6c2.1,0,4.4,1.4,4.4,4.1c0,2.5-0.4,3.9-0.4,4.7c0,0.8,0.7,1.3,1.7,1.3c1.2,0,2.3-0.3,3.3-0.3
	c2.3,0,4.4,1.5,4.4,4.6c0,3.6-1.9,6.2-4.3,8.9c-1,1.1-1.3,1.9-0.5,3.2c1.3,2.1,3.3,2.5,3.3,4.3c0,4.3-2.8,5.8-5.4,6.4
	c-2.5,0.6-7.2,0.8-7.2,4.1c0,2.9,3.8,4.8,3.8,9.8c0,2.2-0.8,4-3.7,5.6c-3.2,1.8-9.6,2-10.6,2c-2.9,0-7-0.6-9.3-0.6
	c-2.4,0-4.5,0.1-4.5,1.5c0,2.6,5.4,4.6,5.4,10.1c0,5.7-8.7,6.7-13.8,6.7c-6.1,0-10.8-1.1-15.8-2.8c-2.6-0.9-7.9-3.6-11.9-3.6
	c-2.3,0-3.5,0.8-3.5,1.8c0,1.7,4.1,4.7,4.1,8.8c0,3.5-2.9,4.9-5.7,4.9c-9.9,0-16.5-11.7-30.8-11.7c-3.6,0-5.1,1.5-9.4,1.5
	c-5.5,0-7.1-1.9-7-5.1c-3.5,1.6-7.8,5.1-7.8,9.8c0,3.7,0.4,5.7,1.8,7.1c1.4,1.5,3.1,2,3.4,3.2c1,1-0.4,3.6,0.2,8.3
	c0.5,3.6,1.6,8.4,2.2,9.6c0.5,1.1-3.5,1.5-4.6,1.5c-1.8,0-7.9,0.1-8.1-1.5c-0.6-4.7-4.6-22-6-26c-2-5.2-2.8-4.7-6.1-7.2
	c-2.8-2.3-16-11.3-23-11.3c-1.9,0-0.9-0.3-2.4-0.3c-1,0-0.2-0.2-0.8-0.2c-0.6,0-0.5,0.5-1.5,0.5c-0.6,0-0.2,1.7-0.6,1.7
	c-0.6,0-0.4,0.6-0.5,1.3c-0.1,0.7-0.7,1.1-0.8,1.7c-0.1,0.6-0.8,0-0.8,0.7c0,0.7,0.3,0.7,0,1.1c-0.6,0.8-0.5,1.2-1,1.2
	c-0.5,0-0.5,0.2-0.5,0.4c0,0.9,0.4,0.8-0.2,1.3c-0.6,0.5-1.4,0.5-1.4,1.3c0,0.3-0.2,0.5-0.3,0.8c-0.4,0-0.8,0.4-1,0.7
	c-0.2,0.3-0.1-0.2-0.5,0.5c-0.4,0.7-0.3,0.6-0.8,0.6c-1.4,0-0.9,0.7-2.8,0.7c-6.6,0-14.4-11.4-14.4-20.5c0-6.3,0.9-6.2,1.1-7.4
	c0.2-1.3,1.2-2.5,1.9-2.6c0.8-0.1,0.5-0.4,1.4-0.3c-0.1-0.5,0.7-0.6,1.1-0.8c0.6-0.3,1-0.3,1.8,0.2c0.3-0.2,0.5-0.5,1.1-0.5
	c0.6,0,0.8,0.6,1.2,0.6c0.7,0,0.5-0.2,1.1-0.2c0.6,0,0.9,0.1,1.6,0.5c0.3-0.1,0.5-0.3,0.9-0.2c0.3,0.1,0.9,0.3,1,0.7
	c0.4,0,0.9-0.1,1.7,0.5c0.3,0.2,0.6,0.6,0.7,0.9c0.6,0.1,0.3-0.4,1.2,0.1c0.9,0.5,0.9,0.6,1.4,1.3c0.5,0.7,0.4,0.1,1.1,0.5
	c1.1,0.7,0.6,1.1,1.1,1.5c0.3,0,0.4,0,0.8,0.3c0.5,0.4,0.1,0.7,0.5,0.9c0.2,0.1,0.4,0,0.5,0.7c0.1,0.5,0.8,0.8,1.4,1.6
	c0.4,0.5,1.4,1.5,1.7,1.5c0.4,0,0.3-0.4-0.3-1.2c-0.8-1.1-0.8-0.6-1.4-2.2c-0.2-0.5-0.7-0.3-0.7-1.1c0-0.6-0.9-1.3-0.9-1.8
	c0-0.5,0-0.7-0.3-0.9c-0.3-0.2-0.4-0.3-0.5-0.6c-0.3-0.8,0.1-0.8,0.1-1.3c0-0.5-0.5,0.1-0.6-0.3c-0.1-0.4,0-0.9,0-1.3
	c0-0.4-0.4-0.2-0.4-0.9c0-0.6,0.1-0.4,0.1-1.1c0-0.7-0.4-0.5-0.5-1.1c-0.1-0.6,0.2-0.5,0.2-1.2c0-0.7-0.2-0.1-0.2-0.7
	c0-0.7,0.3-0.5,0.3-1.4c0-0.3,0.2-0.7,0.3-1c0.1-0.4-0.3-0.4,0-0.8c1-1.5,2.6-3.9,10.7-3.9c10,0,19,2.5,22.8,7.6
	c0.3,0.4,0.7,0.4,0.8,1.3c0.1,0.7,0.4,0.8,0.4,1.9c0,0.6-0.4,1.2-0.5,1.9c-0.2,1.2,0.2,2.4-0.5,2.4c-0.6,0-0.2,2-0.8,2
	c-0.4,0-0.1,0.7-1,0.7c-0.7,0,0,2-1,2.2c-0.3,0.1-1-0.2-1.2,0.8c-0.1,0.4-0.5,1.4-1.2,1.5c-1,0.2-0.6,0.2-1.1,0.6
	c-1.3,1.2-0.4,1.4-0.8,1.8c-1,1-1.2-1.1-1.9-0.3c-0.3,0.4-0.5,0.4-0.5,0.8c0,0.9-0.2,0.6-0.9,0.4c-0.8-0.3-1.5,0.7-1.2,1
	c0.4,0.5-0.1,0.6-0.6,0.2c-0.2-0.2-0.6-0.1-0.9-0.2c-0.5-0.2-1.1,0-1.1,0.5c0,0.8,0.1,0.8-0.2,0.8c-0.3,0-0.2-0.8-0.7-0.8
	c-0.5,0-1,0.1-1,0.1c0.2,0.6,7.6,4.2,9.5,5.1c4.4,2.5,7.7,5.1,9.9,5.1c2.9,0,10.9-19.8,10.4-29c-0.2-2.8-0.3-3.5-0.2-3.9
	c0.2-0.9-1.9-0.8-1.9-4.7c0-0.9,0.2-2.7,0.9-3.6c0.4-0.5,1.5-1.1,2.1-1.1c0.7,0,2.4,1.4,2.6,2.2c0.8-1.2,2.9-11,2.9-14
	c0-1.1-0.4-2.4-0.8-2.8c-0.4-0.4-3.9-1.1-6.9-5c-0.2-0.3-0.6-0.5-0.8-0.3c-0.2,0.2,0,0.3,0,1c0,1-1.6,3.6-4.2,3.6
	c-4.4,0-5.6-2-10.5-2c-2.4,0-4,0.9-5.3,2c-2.4,1.9-6.5,3.8-8.3,3.8c-4.5,0-2.3-6.3-5-6.3c-2.1,0-2.1,3.3-2.8,5.5
	c-1.3,3.5-9.4,13.1-13.9,13.1c-4.4,0-2.7-7.7-5.3-7.7c-1.6,0-2.6,2.3-3.1,3.8c-2,6.5-4.6,11.1-7.2,14.2c-2.6,3-6.2,8.5-10.2,8.5
	c-3.9,0-2.9-6.2-4.8-7.6c-0.9-0.7-2.6-1.5-3.6,0.4c-2,4-4.3,11.7-10.1,11.7c-3.6,0-4.4-2.6-4.5-4.5c-0.1-1.9-0.1-2.3-0.4-3.3
	c-0.3-1.1-0.6-2.1-1.7-2.1c-0.8,0-1.7,0.5-2.4,2.4c-0.8,2-3.5,6.2-8.5,6.2c-4.4,0-6-1.8-6.1-3.1c-0.1-1.8,0.4-4.3-3.1-3.4
	c-3.8,1-6.1-4.7-6.1-6.9c0-4.1,2.8-7.1,2.8-8.5c0-1.8-4-2.7-4-7.1c0-9.7,10.3-7.1,10.3-11.6c0-4.1-7.3-6-7.3-10.3
	c0-8.7,11.5-10.3,13.6-10.3c2.1,0,4.6,0.7,5.8,0.7c1.2,0,4.3-0.6,4.3-2c0-1.4-1.3-3.3-2.4-4.9c-1.2-1.6-2.7-3-2.7-4.9
	c0-6.1,6.4-8.3,10.8-8.3c8.8,0,14.9,1.8,17.2,2.8c2.5,1.1,4.6,2.9,6.8,2.9c1.1,0,1.8-0.4,1.8-1.4c0-2-3.4-4.6-3.4-8.5
	c0-3,2.7-6.3,7.4-6.3c4.7,0,11.4,2.7,15,4.9c3.5,2.2,9.6,8,12.4,8c3,0-0.4-9.3,6.3-9.3c5.8,0,13,6.3,17.8,15.3
	c0.9,1.7,3.4,5.3,5.6,6.5c3.5,1.9,7.7,8.4,8.3,13.2c0.2,1.5,1.1,2.3,1.4,2.3c-0.3-1.5-0.5-4.4,1.5-4.8c1.9-0.4,4.9,2,5.7,3
	c0.6-1.2-1-5.4-1.5-6.6c-0.4-1-3.1-10.2-3.8-11.8c-0.7-1.7-3.7-9-4.7-10.9c-1.7-3.2-5.1-4.5-6.7-5.4c-2.5-1.4-5.1-4.6-5.8-5.2
	c-0.7-0.6-0.7-0.5-1.1-0.5c-0.3,0-0.9,2.3-4.2,2.3c-3.4,0-7.5-5.3-11.7-7.5c-5.9-3.2-13.6-4.2-16.5-4.6c-2.1-0.3-8.9-1.8-12.1-3.8
	c-2.2-1.4-2.9-3.3-2.9-4.9c0-3.3,4.1-5.3,5.1-5.7c1-0.4,2-1,2-1.7c0-1-1.8-1.8-3-2.5c-1.7-1-4.2-1.3-7.6-1.4c-3.4-0.1-8.9-1-12-2.4
	c-3.1-1.4-9.9-6.2-9.9-10.2c0-2.8,1.5-4.9,3.8-6.1c2.3-1.2,6.2-2.4,6.2-4.2c0-1.3-1.4-1.6-2.3-2.3c-1.1-0.8-7-1.9-8.9-2.3
	c-2.9-0.6-15-2.9-15-10.4c0-7.1,10.6-7.3,10.6-8.8c0-1.6-3.1-2.6-6.5-4.6c-3.9-2.5-8.1-5.9-8.1-9.2c0-6.7,9.5-4.7,9.5-7.1
	c0-0.5-0.6-1.5-1-1.9L25.3,14c-1-1-2.1-3-2.1-3.9c0-2.7,2.8-2.7,2.8-3.9c0-0.8-0.3-1-0.3-1.7c0-1.8,2-3.7,5.8-2.8
	c1.3,0.3,2,0.4,3.2,0.2C35.9,1.7,36.6,0,39.1,0c3.3,0,4.8,3.5,5.6,4.5c0.7,0.9,1,1.7,1.7,1.7c1,0,1.2-2.5,2.2-3.8
	C49.2,1.5,51.1,0,52.8,0c5.3,0,9.5,4.4,11.7,9.2c0.4,1,1.1,2.2,1.8,2.2c2.1,0,3.9-8.7,10.2-8.7c3.9,0,5.7,1.4,7.1,2.7
	c2.3,2.1,2.7,6.7,3.8,9.8c1,2.8,0.4,10.9,0.4,12.5s0.4,6.2,1.8,6.2c2.5,0,4.9-6.4,10.9-6.4c2.6,0,6.7,3.6,6.7,12
	c0,9.1-4,12.1-4,18.7c0,1.3,0.2,2.6,1.4,2.6c1.2,0,1.9-2,2.6-2.8c1.1-1.2,3-2,5.8-2c3.2,0,4.7,3,4.7,7.1c0,2.8-1.7,14-1.7,19.7
	c0,5.7,2,8.6,2,15.4c0,5.3-2.5,8.6-2.5,10.9c0,1,1.3,2.7,2.3,2.4c-1.1-1.4,0-4.9,0.9-5.4c0.7-0.4,1.9-0.1,2.5,0.1
	c-0.7-4.5,1.1-8.7,2.6-9c2.2-0.5,6.5,3.7,6.8,4.4c0.6-0.6,1.2-1.2,2.1-1.2c1.3,0,2.6,1,3.8,2.3c0.3-0.5,0.4-0.9,0.4-1.6
	c0-1.1-2.1-6.7-2.1-11.4c0-5.7,2.7-11,2.7-15.4c0-8.4-2.7-13.5-2.7-17.5c0-8.4,2.5-12.8,6.5-12.8c3.8,0,6,3.8,8.4,3.8
	c1.8,0,2.8-3.4,3.1-5.5c1.4-9.6,2.1-30.3,12.6-35.2c2.2-1.1,4.9-0.3,6.7,1.7c3.7,3.8,4.4,8.3,7.2,8.3c2,0,4.6-4.9,5.6-7
	c1.5-3.3,6.7-8.8,11.9-8.8c9,0,5.8,9.8,10.2,9.8c4.6,0,8.1-8.4,15.6-8.4c2.2,0,4.6,2.3,4.6,5c0,1.8-0.2,3.1-0.2,4c0,0.9,0,2,1,2
	c1,0,3.9-3.1,6.1-3.1c3.8,0,2.9,3.7,4.7,4.9c1,0.7,4.8,1,4.8,4.9c0,5-4.8,4.9-4.8,7.2c0,1.6,4.1,2.8,4.1,5.6c0,2.9-2.9,6.2-5.4,6.5
	c-1.9,0.2-8.2,0-8.2,2.7c0,0.6,1.6,1.5,2.9,2.7c1.7,1.5,3.5,3.1,3.5,5.7c0,3.5-3.9,6.9-16.1,6.9c-2,0-2.5-0.2-4.6-0.2
	c-0.9,0-2.6,0.1-4.1,0.5c-2.2,0.6-4.2,1.4-4.2,2.5c0,3.5,6.9,3.4,6.9,7.7c0,3.2-2.3,5.4-5.2,7c-2,1.2-9.6,4.1-14.1,4.1
	c-9.1,0-10.3-1.1-12.9-1.1c-2.3,0-4,0.8-4,2.1c0,1.4,1.4,2.2,3.4,3.3c1.3,0.7,6.5,2.5,6.5,6.8c0,4.5-7.5,6.9-10.7,7.5
	c-8.3,1.7-13,4-18.7,9.5c-2.9,2.8-9.1,10.4-15.3,7.4c-2.6,3.8-6.5,7.6-7,10.9c-0.9,5.6,7.4,31.7,11.1,31.7c2.3,0,5.5-2.9,10.2-6.1
	c3.1-2,6.4-4.3,10.1-6.9c16.2-11.1,29.7-16.7,29.7-18.9c0-1.7-1.4-3.1-1.9-4c-0.4-0.8-0.9-1.1-1.3-1.8c-0.4-0.7-0.3-0.9-0.6-1.5
	c-0.3-0.6-0.7-1-0.9-1.8c-0.2-0.7-0.2-0.8-0.1-1.4c-0.6-0.2-0.6-0.7-0.6-1.3c0-0.6,0.1-0.6,0.1-1.2c0-0.6-0.4-0.2-0.4-1.1
	c0-1.2,0.4-1.1,0.4-1.8c0-0.2-0.7-0.6-0.7-1.1c0-0.9,0.7-1.1,0.7-1.7c0-0.6-0.5-0.4-0.5-1c0-2,0.6-1.7,0.8-2.2
	c-0.1-0.4,0.1-1.7,0.8-2.1c0.7-0.5,1.5-1.5,2.1-1.4C194.3,100.5,194.6,99.8,195.4,99.9"/>
<polygon fill="#420147" points="19,423 19,373 0,373 0,367.3 48.8,367.3 48.8,373 29.6,373 29.6,423 "/>
<path fill="#420147" d="M97.6,415.5c-0.8,3.7-3.9,8.2-10.3,8.2c-7.4,0-11-5.8-11-13.1V387l10.4-0.8V412c0,4.9,2.2,7.2,5.5,7.2
	C94.7,419.2,96.5,417.4,97.6,415.5"/>
<path fill="#420147" d="M109.2,415.9c0,3.7,0.5,5.8,3.1,5.8c-1.5,1-3.9,1.6-5.9,1.6c-4.3,0-7.6-2.2-7.6-7.7V387l10.4-0.8V415.9z"/>
<path fill="#420147" d="M146.3,389.6c5-2.5,10.2-7.8,13-12.5h1.3v9.5h8.9v4h-8.9v22.9c0,3.5,2,6.4,6.2,6.4c2,0,4.1-0.9,5.4-2.9
	c-1,3.1-4,6.7-10.4,6.7c-7.6,0-11.5-5.7-11.5-13.1v-20.1h-4.1V389.6z"/>
<path fill="#420147" d="M56.6,394.1c1.6-4.7,5-8.7,10.4-8.7c1.2,0,2.3,0.3,3.2,0.6l-0.9,7.1c-4.9-3.3-10.6,0-11.9,5.9v24H47.3v-36.1
	l9.4-0.8L56.6,394.1z"/>
<path fill="#420147" d="M128.1,420.3c-4.5,0-7.9-3-9.8-6.3l-0.9,6.6c2.7,1.7,6.8,3.3,11.3,3.3c8.9,0,14.2-5.5,14.2-11.3
	c0-6.9-5-9.6-9.4-12.1c-4.1-2.2-8.1-3.5-8.1-7.2c0-1.8,1.6-4.2,5.3-4.2c3,0,5.6,2,7.8,4.9l1.2-6.1c-2.2-1.1-5.3-2.3-9.3-2.3
	c-8.5,0-12.9,5.3-12.9,11c0,5.8,4.1,9.2,8.4,11.5c4.3,2.4,8.6,3.7,8.6,7.3C134.4,418.2,131.8,420.3,128.1,420.3"/>
<polygon fill="#420147" points="272.7,351.2 272.7,295.2 282.9,294.4 282.9,351.2 "/>
<path fill="#420147" d="M98.3,317.5c5-2.5,10.2-7.8,13-12.5h1.3v9.5h8.9v4h-8.9v22.9c0,3.5,2,6.4,6.2,6.4c2,0,4.1-0.9,5.4-2.9
	c-1,3.1-4,6.7-10.4,6.7c-7.5,0-11.5-5.7-11.5-13.1v-20.1h-4.1V317.5z"/>
<path fill="#420147" d="M131.5,298.3c0,2.3,1.8,4,4.1,4c2.2,0,4.1-1.7,4.1-4c0-2.2-1.8-4-4.1-4C133.3,294.3,131.5,296.1,131.5,298.3
	"/>
<polygon fill="#420147" points="140.7,351.2 140.7,314.3 130.4,315.2 130.4,351.2 "/>
<path fill="#420147" d="M226.6,344.4c0,3.7,0.5,5.8,3.1,5.8c-1.5,1-3.9,1.6-5.9,1.6c-4.3,0-7.6-2.2-7.6-7.7v-19.5
	c0-4.1-2.3-6.4-5.3-6.4c-2.1,0-4.3,1-5.6,2.8c1.2-3.5,4.5-7.3,10.6-7.3c6.8,0,10.7,5.1,10.7,11.6V344.4z"/>
<polygon fill="#420147" points="204,351.2 193.6,351.2 193.6,315.1 204,314.3 "/>
<path fill="#420147" d="M167.1,348.7c-5,0-8.1-4.7-8.1-15.7c0-10.9,3.1-15.7,8.1-15.7c5,0,8.1,4.8,8.1,15.7
	C175.2,343.9,172.1,348.7,167.1,348.7 M167.1,313.7c-9.6,0-18.9,7.5-18.9,19.2c0,11.8,9.3,19.2,18.9,19.2c9.5,0,18.9-7.5,18.9-19.2
	C185.9,321.3,176.6,313.7,167.1,313.7"/>
<path fill="#420147" d="M263.1,344.4c0,3.7,0.5,5.8,2.9,5.8c-1.3,1-3.6,1.6-5.5,1.6c-4,0-7-2.2-7-7.7v-12.8c-7,3.6-9.4,6.5-9.4,11.1
	c0,5.9,5.9,6.7,8.2,3.6c-1.2,3.3-4.3,5.7-8.1,5.7c-5.3,0-9.6-3.6-9.6-8.9c0-8.7,10.9-11.1,18.9-15v-3.7c0-3.7-2-5.7-6.4-5.7
	c-2.6,0-5.9,0.8-8.2,1.7v-4.4c1.7-0.7,5.9-1.6,9.7-1.6c6.8,0,14.4,2.5,14.4,13.3V344.4z"/>
<path fill="#420147" d="M92.1,344.4c0,3.7,0.5,5.8,2.9,5.8c-1.3,1-3.6,1.6-5.5,1.6c-4,0-7-2.2-7-7.7v-12.8c-7,3.6-9.4,6.5-9.4,11.1
	c0,5.9,5.9,6.7,8.1,3.6c-1.2,3.3-4.3,5.7-8.1,5.7c-5.3,0-9.6-3.6-9.6-8.9c0-8.7,10.9-11.1,18.9-15v-3.7c0-3.7-2-5.7-6.4-5.7
	c-2.6,0-5.9,0.8-8.1,1.7v-4.4c1.7-0.7,5.9-1.6,9.7-1.6c6.8,0,14.4,2.5,14.4,13.3V344.4z"/>
<polygon fill="#420147" points="12.7,312.9 12.7,351.2 6.1,351.2 6.1,294.6 8.7,294.6 49.8,333.8 49.8,295.2 56,295.2 56,351.9 
	53.7,351.9 "/>
</svg>
