<?xml version="1.0" encoding="utf-8"?>
<!-- Generator: Adobe Illustrator 19.2.1, SVG Export Plug-In . SVG Version: 6.00 Build 0)  -->
<svg version="1.1" id="layer" xmlns="http://www.w3.org/2000/svg" xmlns:xlink="http://www.w3.org/1999/xlink" x="0px" y="0px"
	 viewBox="0 0 652 652" style="enable-background:new 0 0 652 652;" xml:space="preserve">
<style type="text/css">
	.st0{fill:#FFFFFF;}
	.st1{fill:#EFDD90;}
	.st2{fill:#005DAC;}
	.st3{fill:#D93426;}
</style>
<g>
	<g>
		<path d="M622,377.3c-1.5-0.4-2.4-0.9-2.5-1.3c-0.6-2.1-0.7-4.8-0.7-8v-33.6c0-3.4,0.3-6.1,0.7-7.9c0.1-0.4,1-0.9,2.5-1.3
			c1.6-0.4,2.7-0.7,3.3-0.7c0.3,0,0.3-0.4,0.3-1.5c0-0.4-0.1-0.9-0.3-1.5c-7.1,0.3-11,0.6-11.5,0.6c-1.6,0-3.9-0.1-7-0.3
			c-3-0.1-4.6-0.3-4.9-0.3c-0.1,0.1-0.1,0.6-0.1,1.6c0,0.9,0.1,1.3,0.3,1.3c0.7,0,1.8,0.1,3.3,0.7c1.5,0.4,2.2,0.9,2.5,1.3
			c0.4,1.5,0.7,3.9,0.7,7.6v13.4c0,0.1,0,0.3-0.1,0.3c-5.4,0.1-9.4,0.1-11.8,0.1c-2.2,0-6.4,0-12.2-0.1l-0.1-0.3v-13.1
			c0-3.4,0.3-6.1,0.7-7.9c0.1-0.4,1-0.9,2.5-1.3c1.6-0.4,2.7-0.7,3.3-0.7c0.3,0,0.3-0.4,0.3-1.5c0-0.4-0.1-0.9-0.3-1.5
			c-7.1,0.3-11,0.6-11.5,0.6c-1.6,0-3.9-0.1-7-0.3c-3-0.1-4.6-0.3-4.9-0.3c-0.1,0.1-0.1,0.6-0.1,1.6c0,0.9,0.1,1.3,0.3,1.3
			c0.7,0,1.8,0.1,3.3,0.7c1.5,0.4,2.2,0.9,2.5,1.3c0.4,1.5,0.7,3.9,0.7,7.6v34.5c0,3.1-0.3,5.7-0.7,7.6c-0.1,0.4-1,0.9-2.5,1.3
			c-1.5,0.4-2.7,0.6-3.4,0.6c-0.3,0-0.3,0.6-0.3,1.6c0,0.6,0.1,1,0.3,1.2c0.9,0,2.2-0.1,3.9-0.3c1.6-0.1,3-0.1,4.3-0.1
			c1.3,0,2.5-0.1,3.7-0.1c0.4,0,4.2,0.1,11.3,0.6c0.1-0.3,0.1-0.7,0.1-1.2c0-1.2-0.1-1.6-0.3-1.6c-0.6,0-1.6-0.3-3.1-0.7
			c-1.5-0.4-2.4-0.9-2.5-1.3c-0.6-2.1-0.7-4.8-0.7-8v-14.9c0-0.1,4.2-0.3,12.3-0.4c2.2,0,6.2,0,11.8,0.1l0.1,0.3v15.5
			c0,3.1-0.3,5.7-0.7,7.6c-0.1,0.4-1,0.9-2.5,1.3c-1.5,0.4-2.7,0.6-3.4,0.6c-0.3,0-0.3,0.6-0.3,1.6c0,0.6,0.1,1,0.3,1.2
			c0.9,0,2.2-0.1,3.9-0.3c1.6-0.1,3-0.1,4.3-0.1s2.5-0.1,3.7-0.1c0.4,0,4.2,0.1,11.3,0.6c0.1-0.3,0.1-0.7,0.1-1.2
			c0-1.2-0.1-1.6-0.3-1.6C624.5,378.1,623.5,377.8,622,377.3 M516.1,321.4c-1.5,0-3.6-0.3-6.2-0.9l-1.6,13.5
			c0.4,0.4,1.2,0.7,2.4,0.7c0.6,0,0.9-0.1,0.9-0.6c0.9-3.3,2.1-5.4,3.4-6.5c1.3-1.2,3.6-1.8,6.4-1.8c5.2,0,8,0.4,8.5,1.5
			c0.6,0.9,0.7,3.7,0.7,8.6v32.4c0,3.3-0.3,5.8-0.7,7.4c-0.1,0.4-1,0.9-2.5,1.3c-1.5,0.4-2.7,0.6-3.4,0.6c-0.3,0-0.3,0.6-0.3,1.6
			c0,0.7,0.1,1.2,0.3,1.5c0.6,0,2.4-0.1,5.2-0.3c2.8-0.1,5.1-0.3,6.7-0.3c1.2,0,2.4,0,3.7,0.1c1.3,0,2.7,0.1,4.2,0.3
			c1.5,0.1,2.7,0.1,3.4,0.3c0.1-0.3,0.1-0.9,0.1-1.5c0-1-0.1-1.6-0.3-1.6c-0.6,0-1.6-0.3-3.1-0.7c-1.5-0.4-2.4-0.9-2.4-1.3
			c-0.6-1.9-0.7-4.6-0.7-7.7V336c0-3.9,0.3-6.7,0.7-8.5c0.3-1,3.1-1.5,8.6-1.5c3,0,5.1,0.6,6.4,1.8c1.3,1.2,2.5,3.4,3.3,6.7
			c0.1,0.3,0.4,0.4,0.9,0.4c1.2,0,1.9-0.1,2.4-0.6l-1.6-13.7c-2.7,0.6-4.6,0.9-6.2,0.9c-2.4,0-5.7,0.1-9.8,0.3
			c-4,0.1-7.4,0.3-10,0.3c-2.5,0-5.8,0-9.8-0.3C521.7,321.7,518.5,321.5,516.1,321.4 M443.3,321.4c-0.1,0.1-0.3,0.7-0.3,1.6
			c0,0.9,0.1,1.3,0.3,1.3c0.7,0,1.8,0.1,3.3,0.7c1.5,0.4,2.2,0.9,2.5,1.3c0.4,1.2,0.7,3.7,0.7,7.6v19.5c0,9.7,2.1,16.5,6.2,21
			c4.2,4.3,9.8,6.5,17,6.5c3.4,0,6.4-0.4,9.1-1.3c2.7-0.9,5.1-2.4,7.1-4.3c2.1-1.9,3.7-4.6,4.8-8c1.2-3.4,1.6-7.4,1.6-12v-21.1
			c0-3.4,0.3-5.9,1-7.4c0.6-0.7,1.6-1.3,3.4-1.8c1.8-0.4,3-0.7,3.9-0.7c0.3,0,0.3-0.4,0.3-1.5c0-0.6,0-1-0.1-1.5
			c-0.6,0-2.1,0.1-4.6,0.3c-2.5,0.1-4.5,0.3-5.9,0.3c-1,0-4.8-0.1-11.3-0.6c-0.1,0.3-0.3,0.7-0.1,1.6c0,0.9,0.1,1.2,0.4,1.2
			c0.7,0,2.1,0.3,3.9,0.7s2.8,1,3.1,1.6c0.6,1.2,0.9,3.6,0.9,7.1v21.9c0,7-1.3,12-4.2,15c-2.8,3-6.4,4.5-11,4.5
			c-4.8,0-8.3-1.8-11-5.5c-2.7-3.7-4-8.6-4-14.7v-20.4c0-3.4,0.3-6.1,0.7-7.9c0-0.4,0.9-0.9,2.5-1.3c1.6-0.4,2.7-0.7,3.3-0.7
			c0.3,0,0.3-0.4,0.3-1.5c0-0.4,0-0.9-0.1-1.5c-6.5,0.3-10.4,0.6-11.5,0.6C455,322,450.9,321.8,443.3,321.4 M412.3,381.6
			c7.9,0,14.6-3,20.2-8.9c5.7-5.9,8.5-13.1,8.5-21.4c0-8.3-2.8-15.5-8.5-21.4c-5.7-5.9-12.3-8.9-20.2-8.9c-7.9,0-14.6,3-20.2,8.9
			c-5.7,5.9-8.5,13.1-8.5,21.4c0,8.3,2.8,15.5,8.5,21.4C397.5,378.6,404.4,381.6,412.3,381.6 M421.6,329.7c3,2.8,4.9,6.4,6.2,10.4
			c1.2,4,1.8,8.3,1.8,12.9c0,6.5-1.3,12.2-4.2,17c-2.8,4.8-6.7,7.1-11.8,7.1c-4.2,0-7.6-1.5-10.6-4.5c-3-3-5.1-6.4-6.2-10.6
			c-1.2-4-1.8-8.3-1.8-12.8c0-6.7,1.3-12.3,4-17c2.7-4.6,6.7-7,11.8-7C415.1,325.4,418.7,326.9,421.6,329.7 M313.5,368.8
			c-0.1,3-0.4,4.9-1,5.9c-0.3,0.9-1.5,1.8-3.4,2.4s-3.6,0.9-4.5,0.9c-0.3,0-0.3,0.4-0.3,1.5c0,0.7,0.1,1.2,0.3,1.5
			c0.6,0,2.2-0.1,4.9-0.3c2.7-0.1,4.8-0.3,6.4-0.3c0.3,0,4.2,0.1,11.3,0.6c0.1-0.3,0.1-0.7,0.1-1.3c0-1-0.1-1.6-0.3-1.6
			c-0.7,0-2.1-0.3-4.2-0.9c-2.1-0.6-3.3-1.2-3.6-1.9c-0.1-0.6-0.3-1.5-0.3-2.8c0.6-11.8,1-25.1,1.5-39.9l20.1,48.2
			c0.3,0.1,0.6,0.1,0.9,0.1c1.2,0,2.4-1.2,3.4-3.4l17.1-41.6c0.1-0.3,0.3-0.6,0.4-0.6c0.4,0,0.9,1.8,1,5.5l0.9,27.2v5.1
			c0,1.3-0.3,2.4-0.9,3.1c-0.4,0.4-1.2,0.9-2.5,1.3c-1.2,0.4-2.2,0.6-2.8,0.6c-0.3,0-0.3,0.6-0.3,1.6c0,0.6,0.1,1,0.3,1.3
			c0.9,0,2.2-0.1,3.9-0.3s3-0.1,4.3-0.1c1.3,0,2.5-0.1,3.7-0.1c0.1,0,3.9,0.1,11,0.6c0.1-0.3,0.1-0.7,0.1-1.3c0-1-0.1-1.6-0.3-1.6
			c-0.6,0-1.6-0.3-3-0.7c-1.5-0.4-2.2-0.9-2.5-1.5c-0.9-2.2-1.3-5.1-1.5-8.2c-0.6-19.3-1-31.7-1.2-37c-0.1-2.5,0.3-4.2,1.2-4.8
			c1.3-0.9,2.8-1.5,4.3-1.5h0.1c0.3,0,0.3-0.4,0.3-1.5c0-0.7-0.1-1.2-0.3-1.5c-4.8,0.3-8.3,0.4-10.7,0.4c-3.1,0-5.5-0.1-7.3-0.3
			l-3.3,10.4c-3.1,8.2-7.3,18.4-12.5,31.1c0,0.1-0.1,0.3-0.3,0.3c-0.1,0-0.3,0-0.3-0.1c-1.6-4.2-3.9-9.5-6.7-15.9
			c-2.8-6.5-5.1-11.9-7-16.5c-1.9-4.5-3.1-7.6-3.7-9.2c-5.5,0.3-8.5,0.6-8.8,0.6c-1.5,0-3.4,0-5.7-0.3c-2.2-0.1-3.7-0.3-4.6-0.3
			c-0.3,0.3-0.3,0.7-0.3,1.3c0,1,0.1,1.5,0.3,1.5c0.7,0,2.1,0.1,3.9,0.6c1.8,0.4,2.8,0.9,3,1.3c0.1,0.6,0.3,1.3,0.3,2.5
			c0,1-0.1,3.7-0.3,8.2 M267.7,353.2c0.4,0.9,0.6,1.5,0.6,1.8v13.2c0,3.6-0.3,6.1-0.7,7.9c-0.1,0.4-1,0.9-2.5,1.5
			c-1.5,0.6-2.5,0.7-3.3,0.7c-0.1,0-0.3,0.4-0.3,1.5c0,0.7,0.1,1.2,0.3,1.5c0.6,0,2.4-0.1,5.2-0.3c2.8-0.1,4.9-0.3,6.5-0.3
			c1.2,0,2.4,0,3.7,0.1c1.2,0,2.7,0.1,4.2,0.3c1.5,0.1,2.7,0.1,3.4,0.3c0.1-0.3,0.1-0.9,0.1-1.5c0-0.9-0.1-1.5-0.3-1.5
			c-0.4,0-1.5-0.3-3-0.7c-1.5-0.4-2.4-1-2.5-1.3c-0.4-1.8-0.7-4.5-0.7-8v-14c0-0.7,2.2-4.8,6.7-12s7.6-12.2,9.4-14.7
			c0.7-0.9,1.9-1.6,3.4-2.1c1.6-0.6,2.8-0.7,3.7-0.7c0.3,0,0.3-0.4,0.3-1.5c0-0.4,0-0.9-0.1-1.5c-0.6,0-1.6,0.1-2.7,0.1
			c-1.2,0.1-2.2,0.1-3.4,0.3c-1,0-2.4,0.1-3.7,0.1c-1.2,0-4.8-0.1-10.7-0.6c-0.1,0.3-0.3,0.7-0.3,1.6c0,0.9,0.1,1.2,0.3,1.2
			c1.8,0,3.3,0.3,4.3,0.7c1,0.4,1.6,1,1.6,1.8c0,1-1.2,3.6-3.6,7.7c-2.4,4-4.9,8-7.4,11.8c-0.3,0.4-0.6,0.4-0.9,0.1l-9.5-17.4
			c-0.6-1-0.7-1.8-0.7-2.4c0-0.9,0.6-1.5,1.8-1.9s2.2-0.6,3.3-0.6c0.1,0,0.3-0.4,0.3-1.2c0-0.9,0-1.3-0.1-1.6
			c-7.1,0.3-11.3,0.6-12.3,0.6c-6.4,0-10.4,0-11.8,0.1c-0.1,0.3-0.1,0.6-0.1,1.2c0,0.6,0.1,0.9,0.3,0.9c0.6,0,1.3,0.1,2.5,0.4
			c1.2,0.3,2.1,0.7,2.7,1.2c1.3,0.9,3,3,4.6,6.2 M221.4,326.4c0.1-0.4,1-0.9,2.5-1.3c1.6-0.4,2.7-0.7,3.3-0.7c0.3,0,0.3-0.4,0.3-1.5
			c0-0.4-0.1-0.9-0.3-1.5c-7.1,0.3-11,0.6-11.5,0.6c-1.6,0-3.9-0.1-7-0.3c-3-0.1-4.6-0.3-4.9-0.3c-0.1,0.1-0.1,0.6-0.1,1.6
			c0,0.9,0.1,1.3,0.3,1.3c0.7,0,1.8,0.1,3.3,0.7c1.5,0.4,2.2,0.9,2.5,1.3c0.4,1.5,0.7,4,0.7,7.6v33.9c0,4.2-0.1,6.8-0.6,8.2
			c-0.3,0.6-1,1-2.5,1.3c-1.5,0.4-2.7,0.6-3.4,0.6c-0.1,0-0.3,0.4-0.3,1.5c0,0.7,0.1,1.2,0.3,1.5l11.9-0.3c3-0.1,8.3-0.1,15.8,0.1
			c7.4,0.1,12.5,0.3,14.9,0.3c0.1-0.9,0.4-2.1,0.7-3.4c0.4-1.5,0.7-2.7,1.2-3.6c0.3-1,0.9-2.4,1.6-4.3s1.2-3.1,1.3-3.7
			c-0.3-0.3-1.2-0.6-2.5-0.6c-0.7,0-1.2,0.1-1.2,0.6c-0.6,2.1-1.6,3.9-2.8,5.5c-1.2,1.6-2.2,2.7-3.3,3.1c-2.4,1.2-5.9,1.9-10.7,1.9
			h-3.3c-3.7,0-5.8-0.4-6.1-1.2c-0.6-1.8-0.7-4.2-0.7-7.1v-34.1C220.7,330.9,221,328.4,221.4,326.4 M158.1,321.5
			c-0.3,0.1-0.3,0.7-0.3,1.6c0,0.9,0.1,1.3,0.3,1.3c0.7,0,1.9,0.3,3.4,0.7c1.6,0.4,2.5,1,2.7,1.5c0.3,1.5,0.6,3.9,0.6,7.3v33.9
			c0,4.3-0.1,7.1-0.6,8.2c-0.3,0.6-1.2,1-2.7,1.3c-1.5,0.4-2.7,0.6-3.4,0.6c-0.1,0-0.3,0.4-0.3,1.5c0,0.9,0.1,1.3,0.3,1.6l1.8-0.1
			c1.2,0,2.8-0.1,4.8-0.3s3.9-0.1,5.4-0.1c1.9,0,6.1,0.1,12.6,0.6c0.1-0.3,0.1-0.9,0.1-1.5c0-1-0.1-1.5-0.3-1.5
			c-0.9,0-2.2-0.3-4-0.7c-1.8-0.4-2.8-1-3-1.8c-0.4-1.5-0.7-4-0.7-7.6V336c0-5.8,0.3-8.9,1-9.4c0.9-0.4,2.7-0.6,5.2-0.6
			c3.3,0,5.8,1.2,7.4,3.4c1.6,2.4,2.4,5.5,2.4,9.5c0,3.6-0.9,6.5-2.5,8.9s-3.9,3.6-6.8,3.6c-1.9,0-3.6-0.3-5.1-0.9
			c-0.1,0-0.1,0.1-0.3,0.6c0,0.4,0,0.9,0,1.3c0.1,0.4,0.1,0.7,0.3,0.9c0.4,0.6,1.3,1.2,2.5,1.6c1.2,0.4,2.5,0.7,3.7,0.7
			c3.7,0,7-0.9,10-2.8c3-1.9,5.2-4.2,6.7-6.8s2.2-5.5,2.2-8.2c0-2.4-0.4-4.5-1.3-6.4s-1.9-3.4-3.3-4.8c-1.3-1.2-2.8-2.2-4.6-3.1
			c-1.8-0.9-3.6-1.5-5.4-1.8c-1.8-0.3-3.6-0.4-5.4-0.4c-1.8,0-3.9,0-6.1,0.1c-2.2,0.1-4.3,0.1-5.9,0.1
			C168.3,321.8,164.3,321.7,158.1,321.5"/>
		<path d="M612.6,308.9c0.1-0.1,0.1-0.4,0.1-1c0-0.7-0.1-1-0.3-1c-0.4,0-1.3-0.1-2.8-0.6c-1.3-0.4-2.1-0.7-2.4-1.2
			c-0.4-1.2-0.7-3-0.7-5.4v-10.1c0-0.3,1.5-0.4,4.6-0.4c3.4,0,5.4,0.1,5.9,0.4c0.3,0.1,0.4,0.3,0.6,0.4c0,0,0.1,0.3,0.4,0.9
			c0.3,0.6,0.4,1.5,0.7,2.5c0.1,0.3,0.4,0.4,1,0.4c0.6,0,1-0.1,1.2-0.3v-12.2c-0.1-0.1-0.6-0.3-1.2-0.3c-0.6,0-1,0.1-1,0.4
			c-0.1,0.4-0.3,1-0.4,1.6c-0.3,1.3-0.6,2.1-1,2.2c-0.4,0.1-1.9,0.3-4.5,0.3h-0.3h-3.3c-1.9,0-2.8-0.1-2.8-0.4v-10.1
			c0-2.4,0.1-4.2,0.3-5.2c0.1-0.6,1.8-0.9,4.9-0.9h3.4c4,0,6.8,1.9,8.3,5.8c0.1,0.3,0.4,0.4,0.9,0.4c0.7,0,1.2-0.1,1.3-0.3
			c0-0.1-0.3-1.5-0.9-3.7c-0.4-2.2-0.9-4.2-1-5.4c-2.2,0-5.8,0.1-10.6,0.3c-4.8,0.1-8.2,0.3-10.3,0.1c-2.8,0-5.7-0.1-8.5-0.3
			c-0.1,0.1-0.3,0.6-0.3,1.2s0.1,1,0.3,1c0.6,0,1.5,0.1,2.5,0.4c1,0.3,1.6,0.7,1.8,1.2c0.3,0.9,0.4,2.7,0.4,5.4v24.2
			c0,3-0.1,4.9-0.4,5.9c-0.1,0.4-0.7,0.7-1.9,1c-1,0.3-1.9,0.4-2.5,0.4c-0.1,0-0.1,0.3-0.1,1c0,0.6,0,0.9,0.1,1h1.3
			c0.7-0.1,1.9-0.1,3.4-0.3c1.5,0,2.8-0.1,4.2-0.1C604.4,308.4,607.4,308.6,612.6,308.9 M571.4,309.3c5.7,0,10.6-2.1,14.6-6.4
			c4-4.3,6.1-9.4,6.1-15.5S590,276.3,586,272c-4-4.3-8.9-6.4-14.6-6.4c-5.7,0-10.6,2.1-14.6,6.4c-4,4.3-6.1,9.4-6.1,15.5
			s2.1,11.2,6.1,15.5C560.9,307.3,565.8,309.3,571.4,309.3 M578.3,271.9c2.1,2.1,3.6,4.6,4.5,7.4c0.9,2.8,1.3,5.9,1.3,9.4
			c0,4.8-1,8.8-3,12.2c-1.9,3.4-4.8,5.2-8.5,5.2c-3,0-5.5-1-7.6-3.1c-2.1-2.1-3.6-4.6-4.5-7.6c-0.9-3-1.3-5.9-1.3-9.2
			c0-4.8,1-8.9,3-12.2c1.9-3.4,4.8-5.1,8.5-5.1C573.5,268.7,576.2,269.8,578.3,271.9 M510.4,288.8c0.3,0.6,0.4,1,0.4,1.2v9.5
			c0,2.5-0.1,4.5-0.4,5.7c-0.1,0.3-0.7,0.7-1.8,1c-1,0.3-1.9,0.4-2.4,0.4c-0.1,0-0.1,0.3-0.1,1c0,0.4,0.1,0.9,0.3,1
			c0.4,0,1.8-0.1,3.7-0.3s3.6-0.1,4.8-0.1c0.9,0,1.8,0,2.7,0c0.9,0,1.9,0.1,3,0.1c1,0,1.9,0.1,2.4,0.1c0.1-0.3,0.1-0.6,0.1-1
			c0-0.7-0.1-1-0.3-1c-0.3,0-1-0.1-2.2-0.6c-1-0.3-1.6-0.7-1.8-1c-0.3-1.3-0.4-3.3-0.4-5.8V289c0-0.6,1.6-3.4,4.9-8.6
			c3.3-5.2,5.5-8.8,6.7-10.6c0.4-0.6,1.3-1.2,2.5-1.5c1.2-0.4,2.1-0.6,2.7-0.6c0.1,0,0.3-0.3,0.3-1c0-0.3,0-0.7-0.1-1
			c-0.4,0-1.2,0.1-1.9,0.1c-0.9,0-1.6,0.1-2.4,0.1c-0.7,0-1.6,0-2.7,0c-0.9,0-3.4-0.1-7.7-0.4c-0.1,0.1-0.1,0.6-0.1,1.2
			s0.1,0.9,0.3,0.9c1.3,0,2.4,0.1,3.1,0.6c0.7,0.3,1.2,0.7,1.2,1.2c0,0.7-0.9,2.7-2.5,5.5c-1.8,3-3.6,5.8-5.4,8.5
			c-0.1,0.3-0.4,0.3-0.6,0.1l-7.4-11.9c-0.4-0.7-0.6-1.3-0.6-1.6c0-0.6,0.4-1,1.3-1.3c0.9-0.3,1.6-0.4,2.4-0.4
			c0.1,0,0.1-0.3,0.3-0.9c0-0.6,0-1-0.1-1.2c-5.2,0.3-8.2,0.4-8.9,0.4c-4.6,0-7.4,0-8.5,0.1c-0.1,0.1-0.1,0.4-0.1,0.9
			c0,0.4,0.1,0.6,0.3,0.6c0.4,0,1,0.1,1.8,0.3c0.9,0.3,1.5,0.4,1.9,0.7c1,0.6,2.1,2.1,3.4,4.5 M457.9,265.9c-1,0-2.5-0.1-4.5-0.6
			l-1.2,9.8c0.3,0.3,0.9,0.4,1.6,0.4c0.4,0,0.6-0.1,0.6-0.4c0.6-2.4,1.5-3.9,2.4-4.8c1-0.9,2.5-1.2,4.6-1.2c3.7,0,5.8,0.3,6.1,1
			c0.4,0.6,0.6,2.7,0.6,6.2v23.4c0,2.4-0.1,4.2-0.4,5.4c-0.1,0.3-0.7,0.6-1.8,1c-1,0.3-1.9,0.4-2.4,0.4c-0.1,0-0.3,0.4-0.3,1.2
			c0,0.4,0.1,0.9,0.3,1c0.4,0,1.8-0.1,3.7-0.3c2.1-0.1,3.7-0.1,4.8-0.1c0.9,0,1.8,0,2.7,0c0.9,0,1.9,0.1,3,0.1s1.9,0.1,2.5,0.1
			c0.1-0.3,0.1-0.6,0.1-1c0-0.7-0.1-1.2-0.3-1.2c-0.4,0-1.2-0.1-2.2-0.4c-1.2-0.3-1.6-0.6-1.8-0.9c-0.4-1.5-0.6-3.3-0.6-5.7v-23.1
			c0-2.8,0.1-4.8,0.6-6.1c0.1-0.7,2.2-1,6.2-1c2.1,0,3.7,0.4,4.6,1.2c1,0.9,1.8,2.4,2.4,4.8c0.1,0.1,0.3,0.3,0.6,0.3
			c0.9,0,1.5-0.1,1.8-0.4l-1-9.8c-1.9,0.4-3.4,0.6-4.5,0.6c-1.8,0-4.2,0.1-7,0.3c-3,0.1-5.4,0.1-7.1,0.1c-1.8,0-4.2,0-7.1-0.1
			C461.9,266.1,459.7,266.1,457.9,265.9 M437,300c0,2.2-0.1,4-0.4,5.4c-0.1,0.3-0.7,0.6-1.8,1c-1,0.3-1.9,0.4-2.4,0.4
			c-0.1,0-0.3,0.4-0.3,1.2c0,0.4,0.1,0.7,0.3,0.9c0.7,0,1.6-0.1,2.7-0.1c1.2,0,2.2-0.1,3.1-0.1s1.8,0,2.7,0c0.3,0,3,0.1,8.2,0.4
			c0.1-0.3,0.1-0.6,0.1-0.9c0-0.7-0.1-1.2-0.3-1.2c-0.4,0-1.2-0.1-2.2-0.4c-1-0.3-1.6-0.6-1.8-0.9c-0.4-1.5-0.6-3.4-0.6-5.8v-24.5
			c0-2.4,0.1-4.3,0.4-5.7c0.1-0.3,0.7-0.6,1.9-1c1.2-0.3,1.9-0.4,2.4-0.4c0.1,0,0.3-0.3,0.3-1c0-0.3,0-0.6-0.1-1
			c-5.2,0.3-7.9,0.4-8.3,0.4c-1.2,0-2.8,0-5.1-0.1c-2.2-0.1-3.4-0.1-3.6-0.1c-0.1,0.1-0.1,0.4-0.1,1.2c0,0.6,0.1,1,0.3,1
			c0.4,0,1.3,0.1,2.4,0.4c1,0.3,1.6,0.6,1.8,1c0.3,1,0.4,2.8,0.4,5.4L437,300L437,300z M403.5,280.5c0.4,1,0.9,1.9,1.3,2.7
			c0.4,0.7,1.3,1.5,2.2,2.4c1,0.9,1.8,1.5,2.5,1.9c0.6,0.4,1.6,1,2.8,1.8c0.3,0.1,0.6,0.4,0.7,0.4c0.4,0.1,1,0.6,1.9,1.2
			c0.9,0.6,1.6,0.9,2.1,1.2c0.4,0.3,1,0.7,1.8,1.3c0.7,0.6,1.2,1,1.6,1.5c0.3,0.4,0.7,1,1,1.8s0.4,1.3,0.4,2.1
			c0,2.4-0.6,4.2-1.9,5.4c-1.3,1.2-3,1.8-5.1,1.8c-1.6,0-3-0.3-4.3-1c-1.3-0.6-2.2-1.5-3-2.5c-0.7-1-1.3-2.1-1.8-3
			c-0.4-0.9-0.7-1.8-0.9-2.5c-0.1-0.3-0.7-0.4-1.9-0.4c-0.6,0-1,0.1-1,0.4c0,0.7,0.1,2.2,0.4,4.6c0.3,2.4,0.7,4.3,1,5.8
			c5.4,1.2,9.4,1.8,11.9,1.8c3.7,0,6.8-1.2,9.7-3.4c2.8-2.2,4.2-5.1,4.2-8.5c0-1.2-0.1-2.4-0.4-3.4c-0.3-1-0.7-1.9-1.2-2.7
			c-0.4-0.7-1-1.5-1.9-2.2c-0.9-0.7-1.6-1.3-2.1-1.6c-0.4-0.3-1.3-0.9-2.5-1.5c-1.2-0.7-1.9-1.2-2.2-1.3c-0.1-0.1-0.9-0.4-1.8-1
			c-1-0.6-1.6-1-1.9-1.2c-0.3-0.1-0.7-0.6-1.6-1.2c-0.7-0.6-1.3-1-1.6-1.3c-0.3-0.3-0.6-0.9-1-1.3c-0.4-0.6-0.7-1.2-0.9-1.8
			s-0.3-1.2-0.3-1.8c0-1.9,0.6-3.4,1.6-4.5c1-1.2,2.5-1.6,4.6-1.6c2.2,0,4.2,0.9,5.8,2.8c1.6,1.9,2.5,3.9,2.8,5.8
			c0.1,0.4,0.7,0.6,1.9,0.6c0.4,0,0.7-0.1,0.7-0.6c0-3.7-0.3-7-0.7-10c-0.6-0.1-1.6-0.4-3.3-0.7c-1.6-0.4-2.8-0.7-3.7-0.7
			c-0.9-0.1-1.9-0.1-3.1-0.1c-3.4,0-6.4,1-9.2,3.3c-2.7,2.2-4,4.9-4,8.2C402.9,278.3,403,279.4,403.5,280.5 M371.5,266.2
			c-1.8,0-3.3,0-4.5,0s-4,0-8.6-0.1c-0.1,0.1-0.3,0.4-0.3,1.2s0.1,1,0.3,1c0.4,0,1.3,0.1,2.5,0.6c1.2,0.3,1.8,0.7,1.9,1
			c0.3,1,0.4,2.8,0.4,5.4v24.2c0,3.1-0.1,5.1-0.4,5.9c-0.1,0.4-0.7,0.7-1.9,1c-1,0.3-1.9,0.4-2.5,0.4c-0.1,0-0.1,0.3-0.1,1
			c0,0.6,0,1,0.1,1.2l1.3-0.1c0.9,0,2.1-0.1,3.4-0.1c1.5,0,2.7-0.1,3.9-0.1c1.3,0,4.5,0.1,9.2,0.4c0.1-0.3,0.1-0.6,0.1-1
			c0-0.7-0.1-1-0.3-1c-0.6,0-1.5-0.1-2.8-0.4c-1.3-0.3-2.1-0.7-2.2-1.2c-0.3-1-0.4-3-0.4-5.5v-9.1c0-0.7,0.3-1,1-1s1.3,0,1.5,0.1
			c0.3,0.1,0.7,0.3,1,0.7c0.3,0.3,0.7,0.9,1.3,1.5c0.4,0.7,1,1.3,1.3,1.9c0.4,0.6,1,1.5,1.8,2.7c0.7,1.2,1.5,2.2,2.1,3
			c0.9,1.5,1.8,2.7,2.7,3.6c0.9,0.9,1.9,1.9,3.3,3c1.3,1,2.8,1.8,4.6,2.2c1.8,0.4,3.7,0.7,5.9,0.7c0.7,0,1.5,0,1.9-0.1
			c0.1-0.3,0.3-0.7,0.3-1.2c0-0.4-0.1-0.7-0.3-1c-1.5,0-3.1-0.6-4.8-1.9s-3.4-2.8-4.9-4.8c-2.4-3-4.8-6.7-7.3-11
			c-0.1-0.3-0.1-0.4,0.3-0.6c2.1-0.9,4-2.4,5.5-4.5c1.5-2.1,2.2-4.3,2.2-6.5c0-1.6-0.3-3.1-1-4.5c-0.6-1.3-1.5-2.4-2.5-3.3
			c-1-0.7-2.2-1.5-3.6-2.1c-1.3-0.6-2.5-0.9-3.9-1.2c-1.2-0.3-2.4-0.3-3.6-0.3C374.9,266.1,373.3,266.1,371.5,266.2 M382.7,278.1
			c0,2.4-0.6,4.3-1.9,5.8c-1.3,1.5-2.7,2.2-4.3,2.2h-1.6c-1.3,0-2.2-0.1-3-0.4c-0.7-0.3-1-0.9-1-1.9v-7.4c0-4.3,0.3-6.5,0.7-6.7
			c0.7-0.3,1.9-0.4,3.7-0.4C380.1,269.3,382.7,272.3,382.7,278.1 M322.1,266.1c-0.1,0.1-0.3,0.6-0.3,1.2s0.1,1,0.3,1
			c0.6,0,1.5,0.1,2.5,0.4c1,0.3,1.6,0.7,1.8,1.2c0.3,0.9,0.4,2.7,0.4,5.4v24.2c0,3-0.1,4.9-0.4,5.9c-0.1,0.4-0.7,0.7-1.9,1
			c-1,0.3-1.9,0.4-2.4,0.4c-0.1,0-0.1,0.3-0.1,1c0,0.6,0,0.9,0.1,1l8.6-0.3c2.2-0.1,5.9,0,11.5,0c5.4,0.1,8.9,0.1,10.7,0.1
			c0.1-0.6,0.3-1.5,0.6-2.5c0.3-1,0.6-1.9,0.9-2.7s0.6-1.8,1.2-3.1c0.4-1.3,0.7-2.2,0.9-2.7c-0.3-0.3-0.9-0.4-1.8-0.4
			c-0.6,0-0.9,0.1-0.9,0.4c-0.4,1.5-1.2,2.8-1.9,3.9c-0.9,1.2-1.6,1.9-2.4,2.2c-1.8,0.9-4.3,1.3-7.7,1.3h-2.4
			c-2.7,0-4.2-0.3-4.5-0.9c-0.4-1.2-0.6-2.8-0.6-5.2v-10c0-0.3,1.5-0.4,4.6-0.4c3.4,0,5.4,0.1,5.9,0.4c0.3,0.1,0.4,0.3,0.6,0.4
			c0.1,0.1,0.1,0.3,0.4,0.9c0.3,0.6,0.4,1.5,0.7,2.5c0.1,0.3,0.4,0.4,1,0.4c0.6,0,1-0.1,1.2-0.3v-12.2c-0.1-0.1-0.6-0.3-1.2-0.3
			s-1,0.1-1,0.4c-0.1,0.4-0.3,1-0.4,1.6c-0.3,1.3-0.6,2.1-1,2.2c-0.4,0.1-1.9,0.3-4.5,0.3h-0.3H337c-1.9,0-2.8-0.1-2.8-0.4v-9.8
			c0-2.2,0.1-4,0.4-5.2c0.1-0.6,1.8-0.9,4.9-0.9h3.4c4,0,6.8,1.9,8.3,5.8c0.1,0.3,0.4,0.4,0.9,0.4c0.7,0,1.2-0.1,1.3-0.3
			c0-0.1-0.3-1.5-0.9-3.7c-0.4-2.2-0.9-4.2-1-5.4c-2.4,0-6.1,0.1-10.9,0.3c-4.8,0.1-8.2,0.3-10,0.3
			C327.8,266.4,325,266.2,322.1,266.1 M292.7,283.6c-3.3-8-4.9-12.3-4.9-13.2c0-0.6,0.3-1,0.9-1.3c0.6-0.3,1.2-0.6,1.8-0.7
			c0.6-0.1,1-0.1,1.3-0.1c0.1,0,0.3-0.3,0.3-0.9s0-1-0.1-1.2c-5.4,0.3-8.2,0.4-8.8,0.4c-1.2,0-2.8,0-4.9-0.1s-3.3-0.1-3.6-0.1
			c-0.1,0.1-0.1,0.6-0.1,1.2c0,0.6,0.1,1,0.3,1c0.6,0,1.5,0.1,2.5,0.4c1,0.3,1.6,0.7,1.9,1.3c0.6,1.2,1.5,3.1,2.4,5.8l13.2,33
			c0.3,0.4,0.6,0.6,1,0.6c1,0,1.9-0.7,2.5-2.4l13.4-31.4c1.2-2.8,2.1-4.6,2.8-5.7c0.4-0.6,1.2-1,2.2-1.3c0.9-0.3,1.6-0.4,2.2-0.4
			c0.1,0,0.1-0.3,0.1-1c0-0.4,0-0.7-0.1-1c-0.6,0-1.6,0.1-3.1,0.3c-1.5,0.1-2.8,0.1-3.9,0.1s-2.4,0-4-0.1c-1.6-0.1-2.7-0.1-3.1-0.1
			c-0.1,0.1-0.1,0.6-0.1,1.2s0,0.9,0.3,0.9c1,0,2.1,0.1,3.1,0.6c1,0.4,1.5,1,1.5,1.8c0,0.9-0.4,2.4-1.3,4.5l-9.4,22.3
			c0,0.1-0.3-0.4-0.9-1.5 M259.1,300c0,2.2-0.1,4-0.4,5.4c-0.1,0.3-0.7,0.6-1.8,1c-1,0.3-1.9,0.4-2.4,0.4c-0.1,0-0.3,0.4-0.3,1.2
			c0,0.4,0.1,0.7,0.3,0.9c0.7,0,1.6-0.1,2.7-0.1c1.2,0,2.2-0.1,3.1-0.1c0.9,0,1.8,0,2.7,0c0.3,0,3,0.1,8.2,0.4
			c0.1-0.3,0.1-0.6,0.1-0.9c0-0.7-0.1-1.2-0.3-1.2c-0.4,0-1.2-0.1-2.2-0.4c-1-0.3-1.6-0.6-1.8-0.9c-0.4-1.5-0.6-3.4-0.6-5.8v-24.5
			c0-2.4,0.1-4.3,0.4-5.7c0.1-0.3,0.7-0.6,1.9-1c1.2-0.3,1.9-0.4,2.4-0.4c0.1,0,0.3-0.3,0.3-1c0-0.3,0-0.6-0.1-1
			c-5.2,0.3-7.9,0.4-8.3,0.4c-1.2,0-2.8,0-5.1-0.1c-2.2-0.1-3.4-0.1-3.6-0.1c-0.1,0.1-0.1,0.4-0.1,1.2c0,0.6,0.1,1,0.3,1
			c0.4,0,1.3,0.1,2.4,0.4c1,0.3,1.6,0.6,1.8,1c0.3,1,0.4,2.8,0.4,5.4L259.1,300L259.1,300z M223.8,272.9c-2.2-3-3.7-5.4-4.5-6.8
			c-2.4,0.1-4.5,0.3-5.8,0.3c-0.6,0-3.1-0.1-7.7-0.3c-0.1,0.1-0.3,0.6-0.3,1.2s0.1,1,0.3,1c0.6,0,1.5,0.1,2.8,0.4
			c1.3,0.3,2.1,0.6,2.2,0.9c0.4,0.9,0.7,2.4,0.7,4.8v25.3c0,2.7-0.1,4.5-0.6,5.4c-0.3,0.6-1.2,1.2-2.4,1.5s-2.2,0.4-3,0.4
			c-0.1,0-0.3,0.3-0.3,1c0,0.6,0.1,0.9,0.3,1c0.6,0,1.6-0.1,3.4-0.3c1.6-0.1,3.1-0.1,4.3-0.1c0.1,0,3,0.1,8,0.4
			c0.1-0.1,0.1-0.6,0.1-1.2s-0.1-0.9-0.3-0.9c-0.6,0-1.5-0.1-3-0.6c-1.3-0.3-2.2-0.7-2.4-1.3c-0.3-0.9-0.4-2.7-0.4-5.4v-26.2
			l25.7,34.1c0.7,1,1.3,1.5,2.1,1.5s1.2-0.1,1.5-0.3c-0.1-4.5-0.3-7.4-0.3-9.1v-24.4c0-2.4,0.3-4.2,0.7-5.4c0.4-0.6,1.2-1,2.4-1.3
			c1.2-0.3,2.2-0.4,2.8-0.4c0.1,0,0.3-0.3,0.3-1c0-0.4,0-0.9-0.1-1c-0.4,0-1.5,0.1-3.3,0.3c-1.8,0.1-3.3,0.3-4.3,0.3
			c-0.9,0-3.6-0.1-8.2-0.4c-0.1,0.1-0.1,0.6-0.1,1.2c0,0.6,0.1,0.9,0.3,0.9c0.7,0,1.6,0.1,2.8,0.4c1.2,0.3,1.9,0.7,2.2,1.2
			c0.4,1.2,0.6,2.8,0.6,5.2v17.6c0,1.2,0,2.1-0.1,2.7 M158.2,265.9c-0.1,0.1-0.1,0.6-0.1,1.2s0.1,1,0.3,1c0.4,0,1.3,0.1,2.4,0.4
			c1,0.3,1.6,0.6,1.8,1c0.3,0.9,0.4,2.7,0.4,5.4v14.1c0,7,1.5,11.9,4.5,15c3,3.1,7,4.6,12.2,4.6c2.4,0,4.6-0.3,6.5-1
			c1.9-0.6,3.6-1.6,5.2-3.1c1.5-1.3,2.7-3.3,3.4-5.8c0.7-2.4,1.2-5.4,1.2-8.6v-15c0-2.5,0.3-4.3,0.7-5.4c0.4-0.6,1.2-1,2.4-1.3
			s2.2-0.4,2.8-0.4c0.1,0,0.3-0.3,0.3-1c0-0.4,0-0.7-0.1-1c-0.4,0-1.5,0.1-3.3,0.3c-1.8,0.1-3.3,0.3-4.3,0.3c-0.7,0-3.4-0.1-8.2-0.4
			c-0.1,0.1-0.1,0.6-0.1,1.2s0.1,0.9,0.3,0.9c0.6,0,1.5,0.1,2.7,0.6c1.3,0.3,2.1,0.7,2.2,1.2c0.4,0.7,0.6,2.5,0.6,5.2v15.5
			c0,5.1-1,8.6-3,10.9c-1.9,2.2-4.6,3.3-8,3.3s-6.1-1.3-8-4c-1.9-2.7-2.8-6.2-2.8-10.6v-14.9c0-2.5,0.1-4.5,0.4-5.7
			c0-0.3,0.6-0.7,1.8-1c1.2-0.3,1.9-0.4,2.4-0.4c0.1,0,0.3-0.3,0.3-1c0-0.3,0-0.7-0.1-1c-4.8,0.3-7.4,0.4-8.3,0.4
			C166.6,266.4,163.7,266.2,158.2,265.9"/>
		<path class="st0" d="M123.4,291.2v-25.9H25.8V291c0,8.3,0,12.5,0.3,22.3c3.6,42.2,31.1,63.1,48.6,72.1c17.4-9.1,45.1-30,48.6-72.1
			C123.4,303.7,123.4,299.5,123.4,291.2"/>
		<path class="st1" d="M119.4,313.2c0.3-9.5,0.3-13.7,0.3-21.4V269H74.5H29.4v22.8c0,7.9,0,12,0.3,21.4c3.3,39.4,29,59.2,44.8,67.7
			C90.4,372.4,116.1,352.6,119.4,313.2"/>
		<path d="M121.8,313.4c-3.6,41.3-30.8,62-47.1,70.6c-16.4-8.8-43.7-29.3-47.1-70.6c-0.4-9.8-0.4-14.1-0.3-22.2v-24.4h94.9v24.4
			C122.1,299.2,122.1,303.5,121.8,313.4 M123.4,291.2v-25.9H25.7V291c0,8.3,0,12.5,0.3,22.3c3.6,42.2,31.1,63.1,48.6,72.1
			c17.4-9.1,45.1-30,48.6-72.1C123.4,303.7,123.4,299.5,123.4,291.2"/>
		<path class="st2" d="M59.5,351.9c-1-0.1-1.3-1.3-1.6-2.1c-0.4-1-1.8-1.2-3.1-0.4c0.6-1.5,2.4-2.1,3.6-1.5c2.1,0.7,1.2,2.2,3,2.5
			c-0.4-1,0.4-1.8,0.9-2.4c0.7-0.9,0.1-2.1-1.2-2.8c1.5-0.1,3,1,3.1,2.4c0.3,2.1-1.3,2.1-0.7,3.9c0.6-0.9,1.8-0.6,2.5-0.4
			c1,0.1,1.9-0.9,1.9-2.5c0.9,1.2,0.6,3.1-0.4,3.9c-1.6,1.3-2.5-0.1-3.7,1.3c1,0.1,1.3,1.3,1.6,2.1c0.4,1,1.8,1.2,3.1,0.4
			c-0.6,1.5-2.4,2.1-3.6,1.5c-2.1-0.7-1.2-2.2-3-2.5c0.4,1-0.4,1.8-0.9,2.4c-0.7,0.9-0.1,2.1,1.2,2.8c-1.5,0.1-3-1-3.1-2.4
			c-0.3-2.2,1.3-2.1,0.7-3.9c-0.6,0.9-1.8,0.6-2.5,0.4c-1-0.1-1.9,0.9-1.9,2.5c-0.9-1.2-0.6-3.1,0.4-3.9
			C57.5,351.7,58.4,353.2,59.5,351.9 M72.3,367.3c-1-0.1-1.3-1.3-1.6-2.1c-0.4-1-1.8-1.2-3.1-0.4c0.6-1.5,2.4-2.1,3.6-1.5
			c2.1,0.7,1.2,2.2,3,2.5c-0.4-1,0.4-1.8,0.9-2.4c0.7-0.9,0.1-2.1-1.2-2.8c1.5-0.1,3,1,3.1,2.4c0.3,2.1-1.3,2.1-0.7,3.9
			c0.6-0.9,1.8-0.6,2.5-0.4c1,0.1,1.9-0.9,1.9-2.5c0.9,1.2,0.6,3.1-0.4,3.9c-1.6,1.3-2.5-0.1-3.7,1.3c1,0.1,1.3,1.3,1.6,2.1
			c0.4,1,1.8,1.2,3.1,0.4c-0.6,1.5-2.4,2.1-3.6,1.5c-2.1-0.7-1.2-2.2-3-2.5c0.4,1-0.4,1.8-0.9,2.4c-0.7,0.9-0.1,2.1,1.2,2.8
			c-1.5,0.1-3-1-3.1-2.4c-0.3-2.1,1.3-2.1,0.7-3.9c-0.6,0.9-1.8,0.6-2.5,0.4c-1-0.1-1.9,0.9-1.9,2.5c-0.9-1.2-0.6-3.1,0.4-3.9
			C70.3,367.3,71.2,368.8,72.3,367.3 M80.7,357.1c-0.9-1.2-0.6-3.1,0.4-3.9c1.6-1.3,2.5,0.1,3.7-1.3c-1-0.1-1.3-1.3-1.6-2.1
			c-0.4-1-1.8-1.2-3.1-0.4c0.6-1.5,2.4-2.1,3.6-1.5c2.1,0.7,1.2,2.2,3,2.5c-0.4-1,0.4-1.8,0.9-2.4c0.7-0.9,0.1-2.1-1.2-2.8
			c1.5-0.1,3,1,3.1,2.4c0.3,2.1-1.3,2.1-0.7,3.9c0.6-0.9,1.8-0.6,2.5-0.4c1,0.1,1.9-0.9,1.9-2.5c0.9,1.2,0.6,3.1-0.4,3.9
			c-1.6,1.3-2.5-0.1-3.7,1.3c1,0.1,1.3,1.3,1.6,2.1c0.4,1,1.8,1.2,3.1,0.4c-0.6,1.5-2.4,2.1-3.6,1.5c-2.1-0.7-1.2-2.2-3-2.5
			c0.4,1-0.4,1.8-0.9,2.4c-0.6,0.9-0.1,2.1,1.2,2.8c-1.5,0.1-3-1-3.1-2.4c-0.3-2.1,1.3-2.1,0.7-3.9c-0.6,0.9-1.8,0.6-2.5,0.4
			C81.6,354.4,80.7,355.4,80.7,357.1 M39.1,346.2c9.8,18.3,24.8,29,35.4,34.7c4.3-2.4,9.2-5.4,14.3-9.4c7.6-6.1,15.3-14.3,21.1-25.3
			c-4.6,0.6-10.6-0.1-15.2-2.1c-9.2-3.9-15.2-3.7-20.4,0.3c-5.2-4-11.2-4.2-20.4-0.3C49.5,345.9,43.7,346.7,39.1,346.2"/>
		<path class="st2" d="M98.6,280.3c1,0.1,1.3,1.3,1.6,2.1c0.4,1,1.8,1.2,3.1,0.4c-0.6,1.5-2.4,2.1-3.6,1.5c-2.1-0.7-1.2-2.2-3-2.5
			c0.4,1-0.4,1.8-0.9,2.4c-0.7,0.9-0.1,2.1,1.2,2.8c-1.5,0.1-3-1-3.1-2.4c-0.3-2.1,1.3-2.1,0.7-3.9c-0.6,0.9-1.8,0.6-2.5,0.4
			c-1-0.1-1.9,0.9-1.9,2.5c-0.9-1.2-0.6-3.1,0.4-3.9c1.6-1.3,2.5,0.1,3.7-1.3c-1-0.1-1.3-1.3-1.6-2.1c-0.4-1-1.8-1.2-3.1-0.4
			c0.6-1.5,2.4-2.1,3.6-1.5c2.1,0.7,1.2,2.2,3,2.5c-0.4-1,0.4-1.8,0.9-2.4c0.7-0.9,0.1-2.1-1.2-2.8c1.5-0.1,3,1,3.1,2.4
			c0.3,2.1-1.3,2.1-0.7,3.9c0.6-0.9,1.8-0.6,2.5-0.4c1,0.1,1.9-0.9,1.9-2.5c0.9,1.2,0.6,3.1-0.4,3.9
			C100.5,280.3,99.6,278.8,98.6,280.3 M76.9,280.3c1,0.1,1.3,1.3,1.6,2.1c0.4,1,1.8,1.2,3.1,0.4c-0.6,1.5-2.4,2.1-3.6,1.5
			c-2.1-0.7-1.2-2.2-3-2.5c0.4,1-0.4,1.8-0.9,2.4c-0.7,0.9-0.1,2.1,1.2,2.8c-1.5,0.1-3-1-3.1-2.4c-0.3-2.1,1.3-2.1,0.7-3.9
			c-0.6,0.9-1.8,0.6-2.5,0.4c-1-0.1-1.9,0.9-1.9,2.5c-0.9-1.2-0.6-3.1,0.4-3.9c1.6-1.3,2.5,0.1,3.7-1.3c-1-0.1-1.3-1.3-1.6-2.1
			c-0.4-1-1.8-1.2-3.1-0.4c0.6-1.5,2.4-2.1,3.6-1.5c2.1,0.7,1.2,2.2,3,2.5c-0.4-1,0.4-1.8,0.9-2.4c0.7-0.9,0.1-2.1-1.2-2.8
			c1.5-0.1,3,1,3.1,2.4c0.3,2.1-1.3,2.1-0.7,3.9c0.6-0.9,1.8-0.6,2.5-0.4c1,0.1,1.9-0.9,1.9-2.5c0.9,1.2,0.6,3.1-0.4,3.9
			C78.8,280.3,78.1,278.8,76.9,280.3 M56,280.3c1,0.1,1.3,1.3,1.6,2.1c0.4,1,1.8,1.2,3.1,0.4c-0.6,1.5-2.4,2.1-3.6,1.5
			c-2.1-0.7-1.2-2.2-3-2.5c0.4,1-0.4,1.8-0.9,2.4c-0.7,0.9-0.1,2.1,1.2,2.8c-1.5,0.1-3-1-3.1-2.4c-0.3-2.1,1.3-2.1,0.7-3.9
			c-0.6,0.9-1.8,0.6-2.5,0.4c-1-0.1-1.9,0.9-1.9,2.5c-0.9-1.2-0.6-3.1,0.4-3.9c1.6-1.3,2.5,0.1,3.7-1.3c-1-0.1-1.3-1.3-1.6-2.1
			c-0.4-1-1.8-1.2-3.1-0.4c0.6-1.5,2.4-2.1,3.6-1.5c2.1,0.7,1.2,2.2,3,2.5c-0.4-1,0.4-1.8,0.9-2.4c0.7-0.9,0.1-2.1-1.2-2.8
			c1.5-0.1,3,1,3.1,2.4c0.3,2.1-1.3,2.1-0.7,3.9c0.6-0.9,1.8-0.6,2.5-0.4c1,0.1,1.9-0.9,1.9-2.5c0.9,1.2,0.6,3.1-0.4,3.9
			C58,280.3,57.1,278.8,56,280.3 M107.4,295.4c6.5,0,12.3-4.2,12.3-4.2V282c-0.1-0.1-0.4-0.1-0.7-0.3c0.4,1-0.4,1.8-0.9,2.4
			c-0.6,0.9-0.1,2.1,1.2,2.8c-1.5,0.1-3-1-3.1-2.4c-0.3-2.1,1.3-2.1,0.7-3.9c-0.6,0.9-1.8,0.6-2.5,0.4c-1-0.1-1.9,0.9-1.9,2.5
			c-0.9-1.2-0.6-3.1,0.4-3.9c1.6-1.3,2.5,0.1,3.7-1.3c-1-0.1-1.3-1.3-1.6-2.1c-0.4-1-1.8-1.2-3.1-0.4c0.6-1.5,2.4-2.1,3.6-1.5
			c2.1,0.7,1.2,2.2,3,2.5c-0.4-1,0.4-1.8,0.9-2.4c0.7-0.9,0.1-2.1-1.2-2.8c0.6-0.1,1.2,0.1,1.8,0.4V269H29.4v7.7
			c0.3,0.1,0.4,0.3,0.7,0.3c-0.4-1,0.4-1.8,0.9-2.4c0.7-0.9,0.1-2.1-1.2-2.8c1.5-0.1,3,1,3.1,2.4c0.4,2.1-1.3,2.1-0.6,3.7
			c0.6-0.9,1.8-0.6,2.5-0.4c1,0.1,1.9-0.9,1.9-2.5c0.9,1.2,0.6,3.1-0.4,3.9c-1.8,1.5-2.5,0-3.7,1.5c1,0.1,1.3,1.3,1.6,2.1
			c0.4,1,1.8,1.2,3.1,0.4c-0.6,1.5-2.4,2.1-3.6,1.5c-2.1-0.7-1.2-2.2-3-2.5c0.4,1-0.4,1.8-0.9,2.4c-0.7,0.9-0.1,2.1,1.2,2.8
			c-0.6,0.1-1.2,0-1.6-0.3v4.5c0,0,5.8,4.2,12.3,4.2c12.5,0,14.1-5.9,24.5-5.9c4.5,0,8.2,3.4,8.2,3.4s3.9-3.4,8.2-3.4
			C93.2,289.4,94.9,295.4,107.4,295.4"/>
		<path class="st3" d="M41.8,318c1.5-1.3,3.1-2.8,3.1-2.8l-1.9-1.6c-0.1-0.1-0.1-0.3-0.1-0.6c0-0.1,0.1-0.3,0.4-0.3h2.4
			c0.1-0.4,0.7-0.9,1.2-0.9c0.6,0,1,0.3,1.2,0.9h2.5c0.1,0,0.3,0.1,0.4,0.3c0,0.1,0,0.4-0.1,0.6l-1.8,1.6c0.1,0.1,1.6,1.5,3.1,2.8
			c0.3,0.1,2.7,1.9,1.5,4c-0.6,1-1.5,0.9-1.5,0.9s-0.3,1.6-1.9,1.9c-0.7,0.1-1.2-0.3-1.2-0.3s-0.3,0.6-1,0.9c-0.3,0.1-0.6,0.1-1,0.1
			c-1.5,0-2.1-1.2-2.1-1.2s-0.6,0.6-1.3,0.4c-1.6-0.3-1.9-1.9-1.9-1.9s-0.9,0-1.5-0.9C39.1,320,41.5,318.3,41.8,318 M69.3,318
			c1.5-1.3,3.1-2.8,3.1-2.8l-1.9-1.6c-0.1-0.1-0.1-0.3-0.1-0.6c0-0.1,0.1-0.3,0.4-0.3h2.4c0.1-0.4,0.7-0.9,1.2-0.9
			c0.6,0,1,0.3,1.2,0.9h2.5c0.1,0,0.3,0.1,0.4,0.3c0,0.1,0,0.4-0.1,0.6l-1.8,1.6c0.1,0.1,1.6,1.5,3.1,2.8c0.3,0.1,2.7,1.9,1.5,4
			c-0.6,1-1.5,0.9-1.5,0.9s-0.3,1.5-1.9,1.9c-0.7,0.1-1.2-0.3-1.2-0.3s-0.3,0.6-1,0.9c-0.3,0.1-0.6,0.1-1,0.1
			c-1.5,0-2.1-1.2-2.1-1.2s-0.4,0.4-1.2,0.3c-1.6-0.3-1.9-1.9-1.9-1.9s-0.9,0-1.5-0.9C66.6,320,69.1,318.3,69.3,318 M96.9,318
			c1.5-1.3,3.1-2.8,3.1-2.8l-1.9-1.6c-0.1-0.1-0.1-0.3-0.1-0.6c0-0.1,0.1-0.3,0.4-0.3h2.4c0.1-0.4,0.7-0.9,1.2-0.9
			c0.6,0,1,0.3,1.2,0.9h2.5c0.1,0,0.3,0.1,0.4,0.3s0,0.4-0.1,0.6l-1.8,1.6c0.1,0.1,1.6,1.5,3.1,2.8c0.3,0.1,2.7,1.9,1.5,4
			c-0.6,1-1.5,0.9-1.5,0.9s-0.3,1.6-1.9,1.9c-0.7,0.1-1.2-0.3-1.2-0.3s-0.3,0.6-1,0.9c-0.3,0.1-0.6,0.1-1,0.1
			c-1.5,0-2.1-1.2-2.1-1.2s-0.4,0.4-1.2,0.3c-1.6-0.3-1.9-1.9-1.9-1.9s-0.9,0-1.5-0.9C94.3,320,96.6,318.3,96.9,318 M29.4,305.2
			c0,2.4,0.1,4.9,0.1,8.2c0.6,6.5,1.8,12.6,3.4,18.1c2.8,1.2,6.2,1.9,9.2,1.9c4,0,8-1,11.8-3c7.6-4.2,13.1-4.2,20.1,0l0.3,0.1l0,0
			l0.3-0.1c7-4,12.5-4,20.1,0c3.7,1.9,7.7,3,11.8,3c3.3,0,6.4-0.7,9.4-1.9c1.6-5.5,2.8-11.5,3.4-18c0.1-3.3,0.1-5.9,0.1-8.3
			c-7.9,4-15.5,4.3-23.8,1.2c-7.9-2.8-14.6-3.6-21.4,2.2l0,0c-6.8-5.8-13.5-5.1-21.4-2.2C44.7,309.2,37.3,308.9,29.4,305.2"/>
	</g>
</g>
</svg>
